<svg xmlns="http://www.w3.org/2000/svg" xmlns:xlink="http://www.w3.org/1999/xlink" version="1.1" width="1080" height="1080" viewBox="0 0 1080 1080" xml:space="preserve">
<desc>Created with Fabric.js 3.5.0</desc>
<defs>
</defs>
<rect x="0" y="0" width="100%" height="100%" fill="rgba(102,51,102,0)"/>
<g transform="matrix(1.1771 0 0 1.403 540 712.8706)" id="561760">
<path style="stroke: none; stroke-width: 1; stroke-dasharray: none; stroke-linecap: butt; stroke-dashoffset: 0; stroke-linejoin: miter; stroke-miterlimit: 4; is-custom-font: none; font-file-url: none; fill: rgb(255,255,255); fill-rule: nonzero; opacity: 1;" vector-effect="non-scaling-stroke" transform=" translate(-112.9645, -112.965)" d="M 158.657 43.34 c -21.05 -24.471 -41.786 -40.395 -42.658 -41.061 L 113.011 0 l -3.021 2.234 c -0.873 0.646 -21.634 16.104 -42.701 40.347 c -28.617 32.931 -43.127 64.741 -43.127 94.547 c 0 48.966 39.836 88.802 88.802 88.802 s 88.803 -39.836 88.803 -88.802 C 201.767 108.149 187.262 76.594 158.657 43.34 z" stroke-linecap="round"/>
</g>
<g transform="matrix(0.7008 -0.9458 1.1273 0.8353 329.8569 525.2883)" id="764824">
<path style="stroke: none; stroke-width: 1; stroke-dasharray: none; stroke-linecap: butt; stroke-dashoffset: 0; stroke-linejoin: miter; stroke-miterlimit: 4; is-custom-font: none; font-file-url: none; fill: rgb(255,255,255); fill-rule: nonzero; opacity: 1;" vector-effect="non-scaling-stroke" transform=" translate(-112.9645, -112.965)" d="M 158.657 43.34 c -21.05 -24.471 -41.786 -40.395 -42.658 -41.061 L 113.011 0 l -3.021 2.234 c -0.873 0.646 -21.634 16.104 -42.701 40.347 c -28.617 32.931 -43.127 64.741 -43.127 94.547 c 0 48.966 39.836 88.802 88.802 88.802 s 88.803 -39.836 88.803 -88.802 C 201.767 108.149 187.262 76.594 158.657 43.34 z" stroke-linecap="round"/>
</g>
<g transform="matrix(0.7463 0.9103 -1.085 0.8895 749.2677 522.3085)" id="43989">
<path style="stroke: none; stroke-width: 1; stroke-dasharray: none; stroke-linecap: butt; stroke-dashoffset: 0; stroke-linejoin: miter; stroke-miterlimit: 4; is-custom-font: none; font-file-url: none; fill: rgb(255,255,255); fill-rule: nonzero; opacity: 1;" vector-effect="non-scaling-stroke" transform=" translate(-112.9645, -112.965)" d="M 158.657 43.34 c -21.05 -24.471 -41.786 -40.395 -42.658 -41.061 L 113.011 0 l -3.021 2.234 c -0.873 0.646 -21.634 16.104 -42.701 40.347 c -28.617 32.931 -43.127 64.741 -43.127 94.547 c 0 48.966 39.836 88.802 88.802 88.802 s 88.803 -39.836 88.803 -88.802 C 201.767 108.149 187.262 76.594 158.657 43.34 z" stroke-linecap="round"/>
</g>
<g transform="matrix(1.1771 0 0 1.403 540.0024 366.8945)" id="766397">
<path style="stroke: none; stroke-width: 1; stroke-dasharray: none; stroke-linecap: butt; stroke-dashoffset: 0; stroke-linejoin: miter; stroke-miterlimit: 4; is-custom-font: none; font-file-url: none; fill: rgb(255,255,255); fill-rule: nonzero; opacity: 1;" vector-effect="non-scaling-stroke" transform=" translate(-112.9645, -112.965)" d="M 158.657 43.34 c -21.05 -24.471 -41.786 -40.395 -42.658 -41.061 L 113.011 0 l -3.021 2.234 c -0.873 0.646 -21.634 16.104 -42.701 40.347 c -28.617 32.931 -43.127 64.741 -43.127 94.547 c 0 48.966 39.836 88.802 88.802 88.802 s 88.803 -39.836 88.803 -88.802 C 201.767 108.149 187.262 76.594 158.657 43.34 z" stroke-linecap="round"/>
</g>
</svg>